# xmcd
#
# Track frame offsets:
#	150
#	13860
#	22477
#	36279
#	45350
#	58344
#	66861
#	79293
#	91357
#	105532
#	114699
#	125934
#
# Disc length: 1840 seconds
#
# Revision: 0
# Processed by: cddbd v1.5.2PL0 Copyright (c) Steve Scherf et al.
# Submitted via: EasyCDDAExtractor 16.0.1.1
#
DISCID=b0072e0c
DTITLE=Rose Maddox - Precious Memories
DYEAR=1958
DGENRE=Gospel
TTITLE0=Precious Memories
TTITLE1=i Saw The light
TTITLE2=He Leadeth Me
TTITLE3=Keep on Talking
TTITLE4=Someone To Care
TTITLE5=Dear Lord Take My Hand
TTITLE6=Swing Low  Sweet Chariot
TTITLE7=Take My Hand  Precious lord
TTITLE8=How Can You Refuse Him Now
TTITLE9=No One Knows
TTITLE10=Just over The Stars
TTITLE11=Bringing In The Sheaves
EXTD=
EXTT0=
EXTT1=
EXTT2=
EXTT3=
EXTT4=
EXTT5=
EXTT6=
EXTT7=
EXTT8=
EXTT9=
EXTT10=
EXTT11=
PLAYORDER=
